<svg height="61" viewBox="0 0 70 61" width="70" xmlns="http://www.w3.org/2000/svg"><path d="m19.9926075 14.5008972c.9298224-3.7175794 2.6332617-6.19463552 5.4198785-6.19463552 1.6008224 0 2.8909439 1.23938318 2.8909439 4.43874762v11.8727664l-2.0124299 4.5938131h17.3958318l-4.0795888-5.0578692v-9.6528224c.9298224-3.7175794 2.6332617-6.19463552 5.5247757-6.19463552 1.5483738 0 2.787757 1.23938318 2.787757 4.43874762v11.8727664l-2.0141402 4.5938131h18.4277009l-5.0590093-6.2972524v-10.6846915c0-7.7943178-3.8709346-11.35683182-9.3421215-11.35683182-4.4911963 0-8.4653177 2.42688785-10.8403271 6.86563552-1.2393832-4.697-4.5425047-6.86563552-8.826757-6.86563552-4.7494486 0-9.0331308 2.78775701-11.3043832 7.89807477v-6.91637383h-16.311514l5.98712149 7.07086916v13.47244862l-2.99356074 6.813757h18.42770095l-4.0778785-5.0578692zm-2.1674954 46.2505421c7.1227477 0 12.8533272-3.0465795 12.8533272-9.4977571 0-5.5236355-4.1303272-8.5685046-14.8663272-10.9942523-5.264813-1.1880748-5.7305794-2.1692056-5.7305794-3.0465794 0-.9805608.7228785-1.5996823 2.6845701-1.5996823 3.0973178 0 6.5560748 1.2901215 10.9953925 4.1804954l4.5943832 2.9941308v-11.2017664l-5.7300093 2.2205141c-3.3555701-1.9109533-7.3302617-2.3750094-10.2206356-2.3750094-7.33026164 0-12.02726164 3.0973178-12.02726164 8.8786355 0 5.5224954 4.33613084 8.6198131 12.95708414 10.6339533 5.5219252 1.2901215 6.8120467 2.3219906 6.8120467 3.7158692 0 1.0848878-1.1339159 1.7034392-2.8898037 1.7034392-2.8390655 0-6.0914486-1.4959252-9.9110748-4.1291869l-6.81375701-4.6462617v12.8014486l7.02070093-2.1150467c2.89037388 1.4959252 6.29725238 2.4770561 10.27194388 2.4770561zm33.9131496-1.0324393h17.7578411l-13.0597009-18.1705888 10.3226822-9.1357476h-15.0721308l3.2523831 4.9552523-8.2076355 7.8980748v-12.8025888h-17.3433831l6.0384299 7.2265046v13.059701l-3.0448692 6.9693925h18.4265608l-4.0767384-5.0590093v-4.5943832l1.3938785-1.238243 3.9746916 5.8839346z"/></svg>