<?xml version="1.0" encoding="utf-8"?>
<!-- Generator: Adobe Illustrator 23.0.1, SVG Export Plug-In . SVG Version: 6.00 Build 0)  -->
<svg version="1.1" id="Layer_1" xmlns="http://www.w3.org/2000/svg" xmlns:xlink="http://www.w3.org/1999/xlink" x="0px" y="0px"
	 viewBox="0 0 86.9 68.9" style="enable-background:new 0 0 86.9 68.9;" xml:space="preserve">
<style type="text/css">
	.st0{fill:#EC394B;}
</style>
<rect x="0.9" y="52" class="st0" width="84.9" height="15.2"/>
<path d="M30.7,14.5c0.9-3.7,2.6-6.2,5.4-6.2c1.6,0,2.9,1.2,2.9,4.4v11.9l-2,4.6h17.4l-4.1-5.1v-9.7c0.9-3.7,2.6-6.2,5.5-6.2
	c1.5,0,2.8,1.2,2.8,4.4v11.9l-2,4.6H75l-5-6.2V12.2c0-7.8-3.9-11.4-9.3-11.4c-4.5,0-8.5,2.4-10.8,6.9c-1.2-4.7-4.5-6.9-8.8-6.9
	c-4.7,0-9,2.8-11.3,7.9V1.9H13.3l6,7.1v13.5l-3,6.8h18.4l-4.1-5.1L30.7,14.5z M28.5,60.8c7.1,0,12.9-3,12.9-9.5
	c0-5.5-4.1-8.6-14.9-11c-5.3-1.2-5.7-2.2-5.7-3c0-1,0.7-1.6,2.7-1.6c3.1,0,6.6,1.3,11,4.2l4.6,3V31.6l-5.7,2.2
	c-3.4-1.9-7.3-2.4-10.2-2.4c-7.3,0-12,3.1-12,8.9c0,5.5,4.3,8.6,13,10.6c5.5,1.3,6.8,2.3,6.8,3.7c0,1.1-1.1,1.7-2.9,1.7
	c-2.8,0-6.1-1.5-9.9-4.1l-6.8-4.6v12.8l7-2.1C21.1,59.8,24.5,60.8,28.5,60.8z M62.4,59.7h17.8L67.1,41.5l10.3-9.1h-15l3.3,5
	l-8.2,7.9V32.5H40.1l6,7.2v13.1l-3,7h18.4l-4.1-5.1v-4.6l1.4-1.2l4,5.9L62.4,59.7z"/>
</svg>
