<svg xmlns="http://www.w3.org/2000/svg" viewBox="0 0 216.07 210.95"><defs><style>.cls-1{fill:#eb3a4c;}.cls-2{fill:#010101;}</style></defs><title>Asset 2</title><g id="Layer_2" data-name="Layer 2"><g id="Layer_1-2" data-name="Layer 1"><path class="cls-1" d="M166.86,109.33a55.63,55.63,0,0,1-15.69,38.79,51.35,51.35,0,0,0-13.07,24.34,4.52,4.52,0,0,1-4.42,3.49l-45.42,0a4.5,4.5,0,0,1-4.42-3.47,51.7,51.7,0,0,0-13.15-24.44,55.89,55.89,0,1,1,96.17-38.75Z"/><rect class="cls-1" x="86.69" y="179.23" width="48.23" height="7.06" rx="1.44"/><rect class="cls-1" x="90.84" y="190.01" width="40.2" height="8.98" rx="1.93"/><path class="cls-1" d="M123.13,198.66a12.29,12.29,0,1,1-24.58,0"/><path class="cls-2" d="M162.86,107.33a55.63,55.63,0,0,1-15.69,38.79,51.35,51.35,0,0,0-13.07,24.34,4.52,4.52,0,0,1-4.42,3.49l-45.42,0a4.5,4.5,0,0,1-4.42-3.47,51.7,51.7,0,0,0-13.15-24.44,55.89,55.89,0,1,1,96.17-38.75Z"/><rect class="cls-2" x="82.69" y="177.23" width="48.23" height="7.06" rx="1.44"/><rect class="cls-2" x="86.84" y="188.01" width="40.2" height="8.98" rx="1.93"/><path class="cls-2" d="M119.13,196.66a12.29,12.29,0,1,1-24.58,0"/><path class="cls-1" d="M108.54,36.26A6.22,6.22,0,0,0,114.76,30V8.23a6.23,6.23,0,1,0-12.45,0V30A6.22,6.22,0,0,0,108.54,36.26Z"/><path class="cls-1" d="M35.26,109.54A6.22,6.22,0,0,0,29,103.31H7.23a6.23,6.23,0,1,0,0,12.45H29A6.19,6.19,0,0,0,35.26,109.54Z"/><path class="cls-1" d="M209.85,103.31H188a6.23,6.23,0,1,0,0,12.45h21.81a6.23,6.23,0,0,0,0-12.45Z"/><path class="cls-1" d="M47.94,161.37,32.5,176.82a6.21,6.21,0,0,0,8.76,8.8l15.45-15.44a6.22,6.22,0,0,0,0-8.81A6.15,6.15,0,0,0,47.94,161.37Z"/><path class="cls-1" d="M164.75,59.55a6.21,6.21,0,0,0,4.38-1.8L184.58,42.3a6.23,6.23,0,0,0-8.81-8.8L160.32,48.94a6.22,6.22,0,0,0,0,8.81A6.34,6.34,0,0,0,164.75,59.55Z"/><path class="cls-1" d="M47.94,57.71a6.22,6.22,0,0,0,8.77-8.81L41.26,33.45a6.23,6.23,0,0,0-8.81,8.81Z"/><path class="cls-1" d="M169.13,161.37a6.23,6.23,0,0,0-8.81,8.81l15.45,15.44a6.21,6.21,0,1,0,8.76-8.8Z"/><path class="cls-2" d="M107.54,34.26A6.22,6.22,0,0,0,113.76,28V6.23a6.23,6.23,0,1,0-12.45,0V28A6.22,6.22,0,0,0,107.54,34.26Z"/><path class="cls-2" d="M34.26,107.54A6.22,6.22,0,0,0,28,101.31H6.23a6.23,6.23,0,1,0,0,12.45H28A6.19,6.19,0,0,0,34.26,107.54Z"/><path class="cls-2" d="M208.85,101.31H187a6.23,6.23,0,1,0,0,12.45h21.81a6.23,6.23,0,0,0,0-12.45Z"/><path class="cls-2" d="M46.94,159.37,31.5,174.82a6.21,6.21,0,0,0,8.76,8.8l15.45-15.44a6.22,6.22,0,0,0,0-8.81A6.15,6.15,0,0,0,46.94,159.37Z"/><path class="cls-2" d="M163.75,57.55a6.21,6.21,0,0,0,4.38-1.8L183.58,40.3a6.23,6.23,0,0,0-8.81-8.8L159.32,46.94a6.22,6.22,0,0,0,0,8.81A6.34,6.34,0,0,0,163.75,57.55Z"/><path class="cls-2" d="M46.94,55.71a6.22,6.22,0,0,0,8.77-8.81L40.26,31.45a6.23,6.23,0,1,0-8.81,8.81Z"/><path class="cls-2" d="M168.13,159.37a6.23,6.23,0,0,0-8.81,8.81l15.45,15.44a6.21,6.21,0,1,0,8.76-8.8Z"/></g></g></svg>